<svg version="1.1" xmlns="http://www.w3.org/2000/svg" xmlns:xlink="http://www.w3.org/1999/xlink" viewBox="0 0 226 226"><g fill="none" fill-rule="nonzero" stroke="none" stroke-width="1" stroke-linecap="butt" stroke-linejoin="miter" stroke-miterlimit="10" stroke-dasharray="" stroke-dashoffset="0" font-family="none" font-weight="none" font-size="none" text-anchor="none" style="mix-blend-mode: normal"><path d="M0,226v-226h226v226z" fill="none"></path><g fill="#e74c3c"><path d="M48.22363,35.61045c-0.65107,-0.02207 -1.29112,0.05518 -1.92012,0.1876c-3.74092,0.8166 -6.75352,4.16025 -6.75352,8.2874v20.88955c0,4.6458 3.8292,8.475 8.475,8.475h29.43076c1.24697,3.12295 3.74092,5.65 7.29424,5.65h5.65v8.475h-16.95c-3.55332,0 -6.04727,2.52705 -7.29424,5.65h-26.60576c-1.01523,-0.01103 -1.96426,0.51865 -2.48291,1.40147c-0.50762,0.88281 -0.50762,1.96426 0,2.84707c0.51865,0.88281 1.46768,1.4125 2.48291,1.40147h25.425c0,1.55596 1.26904,2.825 2.825,2.825c1.55596,0 2.825,-1.26904 2.825,-2.825v-2.825c0,-1.6001 1.2249,-2.825 2.825,-2.825h19.30049c0.30898,0.05518 0.61797,0.05518 0.91592,0h16.03408c0.30898,0.05518 0.61797,0.05518 0.91592,0h19.33359c1.6001,0 2.825,1.2249 2.825,2.825v2.825c0,1.55596 1.26904,2.825 2.825,2.825c1.55596,0 2.825,-1.26904 2.825,-2.825h14.125c29.67353,0 53.675,24.00147 53.675,53.675v19.775h2.825c1.6001,0 2.825,1.2249 2.825,2.825c0,1.6001 -1.2249,2.825 -2.825,2.825h-45.2c-1.6001,0 -2.825,-1.2249 -2.825,-2.825c0,-1.6001 1.2249,-2.825 2.825,-2.825h2.825v-14.125c0,-7.76875 -6.35625,-14.125 -14.125,-14.125h-14.125c0,-1.55596 -1.26904,-2.825 -2.825,-2.825c-1.55596,0 -2.825,1.26904 -2.825,2.825v2.825c0,1.6001 -1.2249,2.825 -2.825,2.825h-56.5c-1.6001,0 -2.825,-1.2249 -2.825,-2.825v-2.825c0,-1.55596 -1.26904,-2.825 -2.825,-2.825c-1.55596,0 -2.825,1.26904 -2.825,2.825h-25.425c-1.01523,-0.01103 -1.96426,0.51865 -2.48291,1.40147c-0.50762,0.88281 -0.50762,1.96426 0,2.84707c0.51865,0.88281 1.46768,1.4125 2.48291,1.40147h26.60576c1.24697,3.12295 3.74092,5.65 7.29424,5.65h56.5c3.55332,0 6.04727,-2.52705 7.29424,-5.65h15.30576c4.71201,0 8.475,3.76299 8.475,8.475v9.65576c-3.12295,1.24697 -5.65,3.74092 -5.65,7.29424c0,4.6458 3.8292,8.475 8.475,8.475h45.2c4.6458,0 8.475,-3.8292 8.475,-8.475c0,-3.55332 -2.52705,-6.04727 -5.65,-7.29424v-15.30576c0,-32.73027 -26.59473,-59.325 -59.325,-59.325h-15.30576c-1.24697,-3.12295 -3.74092,-5.65 -7.29424,-5.65h-16.95v-8.475h5.65c3.55332,0 6.04727,-2.52705 7.29424,-5.65h29.43076c4.6458,0 8.475,-3.8292 8.475,-8.475v-20.88955c0,-5.50654 -5.35205,-9.61162 -10.65996,-8.19912l-31.72607,8.46397c-3.00156,-2.80293 -6.83076,-4.80029 -11.28897,-4.80029h-16.95c-4.4582,0 -8.2874,1.99736 -11.28897,4.80029l-31.72607,-8.46397h-0.01104c-0.66211,-0.17656 -1.32422,-0.26484 -1.97529,-0.27588zM48.06914,41.23838c0.2207,0.01104 0.45244,0.04414 0.68418,0.11035l34.72763,9.26953l1.16973,-1.36836c2.08564,-2.48291 5.10928,-4.0499 8.57432,-4.0499h16.95c3.46504,0 6.48867,1.57803 8.57432,4.0499l1.16973,1.36836l34.72764,-9.26953c1.85391,-0.49658 3.55332,0.80557 3.55332,2.73672v20.88955c0,1.6001 -1.2249,2.825 -2.825,2.825h-28.25c0,-1.55596 -1.26904,-2.825 -2.825,-2.825c-1.55596,0 -2.825,1.26904 -2.825,2.825v2.825c0,1.6001 -1.2249,2.825 -2.825,2.825h-8.03359c-0.16553,-0.02207 -0.32002,-0.04414 -0.48555,-0.04414c-0.13242,0.01103 -0.27588,0.02207 -0.4083,0.04414h-16.05615c-0.16553,-0.02207 -0.32002,-0.04414 -0.48555,-0.04414c-0.13242,0.01103 -0.27588,0.02207 -0.4083,0.04414h-8.02256c-1.6001,0 -2.825,-1.2249 -2.825,-2.825v-2.825c0,-1.55596 -1.26904,-2.825 -2.825,-2.825c-1.55596,0 -2.825,1.26904 -2.825,2.825h-28.25c-1.6001,0 -2.825,-1.2249 -2.825,-2.825v-20.88955c0,-1.68838 1.30215,-2.90225 2.86914,-2.84707zM79.1,53.675c-1.55596,0 -2.825,1.26904 -2.825,2.825c0,1.55596 1.26904,2.825 2.825,2.825c1.55596,0 2.825,-1.26904 2.825,-2.825c0,-1.55596 -1.26904,-2.825 -2.825,-2.825zM124.3,53.675c-1.55596,0 -2.825,1.26904 -2.825,2.825c0,1.55596 1.26904,2.825 2.825,2.825c1.55596,0 2.825,-1.26904 2.825,-2.825c0,-1.55596 -1.26904,-2.825 -2.825,-2.825zM96.05,79.1h11.3v8.475h-11.3zM16.95,93.225c-1.55596,0 -2.825,1.26904 -2.825,2.825c0,1.55596 1.26904,2.825 2.825,2.825c1.55596,0 2.825,-1.26904 2.825,-2.825c0,-1.55596 -1.26904,-2.825 -2.825,-2.825zM28.25,93.225c-1.55596,0 -2.825,1.26904 -2.825,2.825c0,1.55596 1.26904,2.825 2.825,2.825c1.55596,0 2.825,-1.26904 2.825,-2.825c0,-1.55596 -1.26904,-2.825 -2.825,-2.825zM67.8,107.35c-1.55596,0 -2.825,1.26904 -2.825,2.825c0,1.55596 1.26904,2.825 2.825,2.825c1.55596,0 2.825,-1.26904 2.825,-2.825c0,-1.55596 -1.26904,-2.825 -2.825,-2.825zM135.6,107.35c-1.55596,0 -2.825,1.26904 -2.825,2.825c0,1.55596 1.26904,2.825 2.825,2.825c1.55596,0 2.825,-1.26904 2.825,-2.825c0,-1.55596 -1.26904,-2.825 -2.825,-2.825zM67.8,118.65c-1.55596,0 -2.825,1.26904 -2.825,2.825c0,1.55596 1.26904,2.825 2.825,2.825c1.55596,0 2.825,-1.26904 2.825,-2.825c0,-1.55596 -1.26904,-2.825 -2.825,-2.825zM135.6,118.65c-1.55596,0 -2.825,1.26904 -2.825,2.825c0,1.55596 1.26904,2.825 2.825,2.825c1.55596,0 2.825,-1.26904 2.825,-2.825c0,-1.55596 -1.26904,-2.825 -2.825,-2.825zM67.8,129.95c-1.55596,0 -2.825,1.26904 -2.825,2.825c0,1.55596 1.26904,2.825 2.825,2.825c1.55596,0 2.825,-1.26904 2.825,-2.825c0,-1.55596 -1.26904,-2.825 -2.825,-2.825zM135.6,129.95c-1.55596,0 -2.825,1.26904 -2.825,2.825c0,1.55596 1.26904,2.825 2.825,2.825c1.55596,0 2.825,-1.26904 2.825,-2.825c0,-1.55596 -1.26904,-2.825 -2.825,-2.825zM16.95,144.075c-1.55596,0 -2.825,1.26904 -2.825,2.825c0,1.55596 1.26904,2.825 2.825,2.825c1.55596,0 2.825,-1.26904 2.825,-2.825c0,-1.55596 -1.26904,-2.825 -2.825,-2.825zM28.25,144.075c-1.55596,0 -2.825,1.26904 -2.825,2.825c0,1.55596 1.26904,2.825 2.825,2.825c1.55596,0 2.825,-1.26904 2.825,-2.825c0,-1.55596 -1.26904,-2.825 -2.825,-2.825zM175.15,166.675c-1.55596,0 -2.825,1.26904 -2.825,2.825c0,1.55596 1.26904,2.825 2.825,2.825c1.55596,0 2.825,-1.26904 2.825,-2.825c0,-1.55596 -1.26904,-2.825 -2.825,-2.825zM186.45,166.675c-1.55596,0 -2.825,1.26904 -2.825,2.825c0,1.55596 1.26904,2.825 2.825,2.825c1.55596,0 2.825,-1.26904 2.825,-2.825c0,-1.55596 -1.26904,-2.825 -2.825,-2.825zM197.75,166.675c-1.55596,0 -2.825,1.26904 -2.825,2.825c0,1.55596 1.26904,2.825 2.825,2.825c1.55596,0 2.825,-1.26904 2.825,-2.825c0,-1.55596 -1.26904,-2.825 -2.825,-2.825zM189.275,192.1c0,0 -5.65,11.00205 -5.65,14.125c0,3.12295 2.52705,5.65 5.65,5.65c3.12295,0 5.65,-2.52705 5.65,-5.65c0,-3.12295 -5.65,-14.125 -5.65,-14.125z"></path></g></g></svg>