<svg xmlns="http://www.w3.org/2000/svg" xmlns:xlink="http://www.w3.org/1999/xlink" version="1.1" viewBox="0 0 226 226"><g fill="none" fill-rule="nonzero" stroke="none" stroke-dashoffset="0" stroke-linecap="butt" stroke-linejoin="miter" stroke-miterlimit="10" stroke-width="1" font-family="none" font-size="none" font-weight="none" text-anchor="none" style="mix-blend-mode:normal"><path fill="none" d="M0,226v-226h226v226z"/><g fill="#e74c3c"><path d="M31.78125,7.0625c-5.84069,0 -10.59375,4.75306 -10.59375,10.59375v63.5625c0,5.84069 4.75306,10.59375 10.59375,10.59375c4.59769,0 8.4835,-2.96272 9.94543,-7.0625h32.42957c1.94219,0 3.53125,1.58906 3.53125,3.53125v11.22827c-4.09625,1.44781 -7.0625,5.3686 -7.0625,9.95923c0,4.59062 2.96625,8.51142 7.0625,9.95923v25.35327c0,33.08781 26.94344,60.03125 60.03125,60.03125h53.61707c1.46194,4.09978 5.34775,7.0625 9.94543,7.0625c5.84069,0 10.59375,-4.75306 10.59375,-10.59375v-63.5625c0,-5.84069 -4.75306,-10.59375 -10.59375,-10.59375c-4.59769,0 -8.4835,2.96272 -9.94543,7.0625h-39.49207c-1.94219,0 -3.53125,-1.58906 -3.53125,-3.53125v-11.22827c4.09625,-1.44781 7.0625,-5.3686 7.0625,-9.95923c0,-4.59063 -2.96625,-8.51141 -7.0625,-9.95923v-25.35327c0,-33.08781 -26.94344,-60.03125 -60.03125,-60.03125h-46.55457c-1.46194,-4.09978 -5.34775,-7.0625 -9.94543,-7.0625zM31.78125,14.125c1.94925,0 3.53125,1.58553 3.53125,3.53125v63.5625c0,1.94572 -1.582,3.53125 -3.53125,3.53125c-1.94925,0 -3.53125,-1.58553 -3.53125,-3.53125v-63.5625c0,-1.94572 1.582,-3.53125 3.53125,-3.53125zM42.375,21.1875h45.90625c29.20344,0 52.96875,23.76531 52.96875,52.96875v24.71875h-56.5v-10.59375c0,-5.82656 -4.76719,-10.59375 -10.59375,-10.59375h-31.78125zM52.96875,28.25c-1.95278,0 -3.53125,1.582 -3.53125,3.53125c0,1.94925 1.57847,3.53125 3.53125,3.53125h7.0625c1.95278,0 3.53125,-1.582 3.53125,-3.53125c0,-1.94925 -1.57847,-3.53125 -3.53125,-3.53125zM103.35113,31.05017c-1.37454,0.04469 -2.65512,0.90251 -3.1795,2.2691c-0.69919,1.82212 0.20911,3.85971 2.02771,4.5589c2.67669,1.0276 5.24413,2.36257 7.64185,3.96576c0.60384,0.40256 1.28427,0.59314 1.95874,0.59314c1.14059,0 2.26011,-0.55551 2.93811,-1.57251c1.08762,-1.62084 0.65527,-3.81276 -0.96558,-4.89685c-2.83206,-1.89275 -5.8744,-3.46476 -9.04193,-4.68304c-0.45377,-0.17656 -0.92121,-0.24939 -1.37939,-0.2345zM122.00055,44.43719c-0.89694,-0.10594 -1.83901,0.1359 -2.60705,0.73798c-1.53256,1.20769 -1.79393,3.41946 -0.58624,4.95202c5.44166,6.90713 8.31775,15.21505 8.31775,24.02905c0,1.94925 1.57847,3.53125 3.53125,3.53125c1.95278,0 3.53125,-1.582 3.53125,-3.53125c0,-10.41366 -3.40114,-20.23395 -9.83508,-28.40173c-0.60208,-0.76452 -1.45493,-1.21138 -2.35187,-1.31732zM52.96875,45.90625c-1.95278,0 -3.53125,1.582 -3.53125,3.53125c0,1.94925 1.57847,3.53125 3.53125,3.53125h7.0625c1.95278,0 3.53125,-1.582 3.53125,-3.53125c0,-1.94925 -1.57847,-3.53125 -3.53125,-3.53125zM52.96875,63.5625c-1.95278,0 -3.53125,1.582 -3.53125,3.53125c0,1.94925 1.57847,3.53125 3.53125,3.53125h7.0625c1.95278,0 3.53125,-1.582 3.53125,-3.53125c0,-1.94925 -1.57847,-3.53125 -3.53125,-3.53125zM81.21875,105.9375h3.53125h56.5h3.53125c1.94219,0 3.53125,1.58906 3.53125,3.53125c0,1.94219 -1.58906,3.53125 -3.53125,3.53125h-3.53125h-56.5h-3.53125c-1.94219,0 -3.53125,-1.58906 -3.53125,-3.53125c0,-1.94219 1.58906,-3.53125 3.53125,-3.53125zM84.75,120.0625h56.5v10.59375c0,5.82656 4.76719,10.59375 10.59375,10.59375h38.84375v56.5h-52.96875c-29.20344,0 -52.96875,-23.76531 -52.96875,-52.96875zM201.28125,134.1875c1.94925,0 3.53125,1.58553 3.53125,3.53125v63.5625c0,1.94572 -1.582,3.53125 -3.53125,3.53125c-1.94925,0 -3.53125,-1.58553 -3.53125,-3.53125v-63.5625c0,-1.94572 1.582,-3.53125 3.53125,-3.53125zM173.03125,148.3125c-1.95278,0 -3.53125,1.582 -3.53125,3.53125c0,1.94925 1.57847,3.53125 3.53125,3.53125h7.0625c1.95278,0 3.53125,-1.582 3.53125,-3.53125c0,-1.94925 -1.57847,-3.53125 -3.53125,-3.53125zM173.03125,165.96875c-1.95278,0 -3.53125,1.582 -3.53125,3.53125c0,1.94925 1.57847,3.53125 3.53125,3.53125h7.0625c1.95278,0 3.53125,-1.582 3.53125,-3.53125c0,-1.94925 -1.57847,-3.53125 -3.53125,-3.53125zM173.03125,183.625c-1.95278,0 -3.53125,1.582 -3.53125,3.53125c0,1.94925 1.57847,3.53125 3.53125,3.53125h7.0625c1.95278,0 3.53125,-1.582 3.53125,-3.53125c0,-1.94925 -1.57847,-3.53125 -3.53125,-3.53125z"/></g></g></svg>