<svg version="1.1" xmlns="http://www.w3.org/2000/svg" xmlns:xlink="http://www.w3.org/1999/xlink" viewBox="0 0 226 226"><g fill="none" fill-rule="nonzero" stroke="none" stroke-width="1" stroke-linecap="butt" stroke-linejoin="miter" stroke-miterlimit="10" stroke-dasharray="" stroke-dashoffset="0" font-family="none" font-weight="none" font-size="none" text-anchor="none" style="mix-blend-mode: normal"><path d="M0,226v-226h226v226z" fill="none"></path><g fill="#e74c3c"><path d="M186.45,25.425v5.65h8.475v8.475h-5.65c-7.76875,0 -14.125,6.35625 -14.125,14.125v8.475h14.125v-8.475h19.775v-5.65h-19.775c-3.08984,0 -5.65,2.56016 -5.65,5.65v2.825h-2.825v-2.825c0,-4.71201 3.76299,-8.475 8.475,-8.475h19.775v-5.65h-8.475v-8.475h8.475v-5.65zM81.925,45.2c-10.8917,0 -19.775,8.8833 -19.775,19.775c0,10.8917 8.8833,19.775 19.775,19.775c10.8917,0 19.775,-8.8833 19.775,-19.775c0,-10.8917 -8.8833,-19.775 -19.775,-19.775zM81.925,50.85c7.83496,0 14.125,6.29004 14.125,14.125c0,7.83496 -6.29004,14.125 -14.125,14.125c-7.83496,0 -14.125,-6.29004 -14.125,-14.125c0,-7.83496 6.29004,-14.125 14.125,-14.125zM121.475,70.80156l-4.00576,1.84287c0,0 -10.11924,4.56855 -10.11924,14.93057c0,5.23067 3.57539,9.41299 8.475,11.81865v13.60635h-10.95791l-13.66152,-16.65205c-2.24013,-3.54228 -6.19072,-5.94795 -10.69307,-5.94795h-14.125c-5.07617,0 -9.09297,3.26641 -11.12344,7.59219c-0.41933,0.30898 -0.73936,0.72832 -0.93799,1.20283l-15.84648,38.88789c-0.16553,0.38623 -0.23174,0.80557 -0.20967,1.2249c-0.86074,2.39463 -1.54492,4.91064 -1.54492,7.59219c0,2.74775 0.71728,5.28584 1.62217,7.72461c-0.03311,0.46348 0.04414,0.93799 0.23174,1.36836l9.79922,21.98203h-20.12813c-6.21279,0 -11.3,5.08721 -11.3,11.3c0,6.21279 5.08721,11.3 11.3,11.3h36.725c6.21279,0 11.3,-5.08721 11.3,-11.3c0,-1.32422 -0.45244,-2.46084 -0.87178,-3.6085v-0.01103c0.02207,-0.28691 -0.01103,-0.57383 -0.08828,-0.84971l-6.42246,-23.78076h14.5333l4.18232,28.6583l-0.03311,-0.4083c0,6.21279 5.08721,11.3 11.3,11.3c6.21279,0 11.3,-5.08721 11.3,-11.3c0,-0.94902 -0.15449,-1.79873 -0.34209,-2.57119l-5.32998,-37.90576c-0.05518,-0.36416 -0.17656,-0.71728 -0.36416,-1.04834c-0.96006,-5.2417 -5.39619,-9.32471 -10.91377,-9.32471h-11.91797l5.73828,-15.97891l5.41826,6.61006c0.32002,0.39727 0.76143,0.70625 1.24697,0.87178c1.75459,1.64424 3.97266,2.84707 6.57695,2.84707h15.5375v11.3c0,4.6458 3.8292,8.475 8.475,8.475c4.6458,0 8.475,-3.8292 8.475,-8.475v-14.30156c1.74356,-1.78769 2.825,-4.21543 2.825,-6.88594c0,-2.67051 -1.08144,-5.09824 -2.825,-6.88594v-16.60791c4.89961,-2.40567 8.475,-6.58799 8.475,-11.81865c0,-10.36201 -10.11924,-14.93057 -10.11924,-14.93057l-4.00576,-1.84287v13.94844h-5.65zM156.7875,73.45c-3.8623,0 -7.0625,3.2002 -7.0625,7.0625c0,3.32158 2.53809,5.73828 5.65,6.47764v11.88486c0,6.21279 5.08721,11.3 11.3,11.3h12.48076c0.88281,2.21807 2.40566,4.10508 4.46924,5.03203v9.09297c0,7.76875 6.35625,14.125 14.125,14.125h11.3v-5.65h-11.3c-4.71201,0 -8.475,-3.76299 -8.475,-8.475v-9.09297c2.06357,-0.92695 3.58643,-2.81397 4.46924,-5.03203h15.30576v-5.65h-19.775v2.825c0,1.6001 -1.2249,2.825 -2.825,2.825c-1.6001,0 -2.825,-1.2249 -2.825,-2.825v-2.825h-16.95c-3.15605,0 -5.65,-2.49394 -5.65,-5.65v-11.3c1.55596,0 2.825,-1.26904 2.825,-2.825c0,-1.55596 -1.26904,-2.825 -2.825,-2.825h-4.2375c-0.80557,0 -1.4125,-0.60693 -1.4125,-1.4125c0,-0.80557 0.60693,-1.4125 1.4125,-1.4125h52.2625v-5.65zM115.825,80.96494v3.78506c0,3.08984 2.56016,5.65 5.65,5.65h5.65c3.08984,0 5.65,-2.56016 5.65,-5.65v-3.78506c1.46768,1.61113 2.825,3.72988 2.825,6.61006c0,3.4209 -2.20703,6.36728 -6.52178,7.75772l-1.95322,0.629v17.03828h-5.65v-17.03828l-1.95322,-0.629c-4.31475,-1.39043 -6.52178,-4.33682 -6.52178,-7.75772c0,-2.88018 1.35732,-4.99893 2.825,-6.61006zM172.325,81.925c-1.55596,0 -2.825,1.26904 -2.825,2.825c0,1.55596 1.26904,2.825 2.825,2.825c1.55596,0 2.825,-1.26904 2.825,-2.825c0,-1.55596 -1.26904,-2.825 -2.825,-2.825zM183.625,81.925c-1.55596,0 -2.825,1.26904 -2.825,2.825c0,1.55596 1.26904,2.825 2.825,2.825c1.55596,0 2.825,-1.26904 2.825,-2.825c0,-1.55596 -1.26904,-2.825 -2.825,-2.825zM194.925,81.925c-1.55596,0 -2.825,1.26904 -2.825,2.825c0,1.55596 1.26904,2.825 2.825,2.825c1.55596,0 2.825,-1.26904 2.825,-2.825c0,-1.55596 -1.26904,-2.825 -2.825,-2.825zM206.225,81.925c-1.55596,0 -2.825,1.26904 -2.825,2.825c0,1.55596 1.26904,2.825 2.825,2.825c1.55596,0 2.825,-1.26904 2.825,-2.825c0,-1.55596 -1.26904,-2.825 -2.825,-2.825zM66.3875,96.05h14.125c2.59326,0 4.78926,1.39043 6.03623,3.47607c0.07725,0.11035 0.15449,0.23174 0.24277,0.33105l14.55537,17.7666c0.54072,0.65107 1.33525,1.02627 2.18496,1.02627h22.18066c2.37256,0 4.2375,1.86494 4.2375,4.2375c0,2.37256 -1.86494,4.2375 -4.2375,4.2375h-25.425c-1.36836,0 -2.53808,-0.64004 -3.32158,-1.66631c-0.17656,-0.2207 -0.38623,-0.41933 -0.61797,-0.58486h-0.01103l-8.07773,-9.85439c-0.64004,-0.7835 -1.66631,-1.16973 -2.65947,-0.99317c-1.0042,0.16553 -1.84287,0.87178 -2.18496,1.83184l-8.78398,24.43183c-0.30898,0.87178 -0.17656,1.83184 0.35313,2.58223c0.52969,0.75039 1.39043,1.20283 2.30635,1.20283h15.93477c3.02363,0 5.41826,2.31738 5.60586,5.29688c0.04414,0.76143 0.39727,1.46768 0.97109,1.96426c0.58486,0.50762 1.34629,0.73935 2.10772,0.67314l-2.62637,0.24277l4.97686,35.30147c0.01103,0.11035 0.03311,0.2207 0.05518,0.32002c0.14346,0.52969 0.20967,0.98213 0.20967,1.40147c0,3.15606 -2.49394,5.65 -5.65,5.65c-3.15605,0 -5.65,-2.49394 -5.65,-5.65c0,-0.13242 -0.01103,-0.27588 -0.03311,-0.4083l-4.52441,-31.075c-0.20967,-1.39043 -1.40147,-2.4167 -2.80293,-2.4167h-20.66885c-0.87178,0 -1.69941,0.4083 -2.24014,1.11455c-0.52969,0.69522 -0.70625,1.6001 -0.48555,2.44981l7.27217,26.92578c0.04414,0.32002 0.13242,0.64004 0.27588,0.93799c0.38623,0.7835 0.60693,1.61113 0.60693,2.47187c0,3.15606 -2.49394,5.65 -5.65,5.65h-36.725c-3.15605,0 -5.65,-2.49394 -5.65,-5.65c0,-3.15605 2.49395,-5.65 5.65,-5.65h24.47598c0.96006,0 1.84287,-0.48555 2.37256,-1.28008c0.51865,-0.80557 0.5959,-1.8208 0.20967,-2.69258l-11.34414,-25.48018c-0.04414,-0.17656 -0.09932,-0.33106 -0.16553,-0.48555c-0.91592,-2.08564 -1.42353,-4.36992 -1.42353,-6.78662c0,-2.36152 0.48555,-4.59062 1.35732,-6.63213c0.05518,-0.15449 0.09932,-0.29795 0.14346,-0.46348l15.37197,-37.70713l-0.66211,0.46348c0.51865,-0.36416 0.90488,-0.88281 1.09248,-1.48975c0.88281,-2.90225 3.50918,-5.021 6.70938,-5.021zM121.475,132.775h5.65v11.3c0,1.6001 -1.2249,2.825 -2.825,2.825c-1.6001,0 -2.825,-1.2249 -2.825,-2.825z"></path></g></g></svg>