<svg version="1.1" xmlns="http://www.w3.org/2000/svg" xmlns:xlink="http://www.w3.org/1999/xlink" viewBox="0 0 226 226"><g fill="none" fill-rule="nonzero" stroke="none" stroke-width="1" stroke-linecap="butt" stroke-linejoin="miter" stroke-miterlimit="10" stroke-dasharray="" stroke-dashoffset="0" font-family="none" font-weight="none" font-size="none" text-anchor="none" style="mix-blend-mode: normal"><path d="M0,226v-226h226v226z" fill="none"></path><g fill="#e74c3c"><path d="M91.39316,14.125c-14.50612,0.18652 -26.74033,11.49786 -28.75762,26.25264c-3.38375,0.97601 -6.13555,3.605 -6.13555,7.2832v0.72832c0,4.44604 3.6648,8.11084 8.11084,8.11084h9.20332c4.44604,0 8.11084,-3.6648 8.11084,-8.11084v-0.72832c0,-2.25731 -1.13387,-4.11128 -2.64292,-5.58931c1.12588,-6.29411 6.39351,-10.88591 12.20488,-11.00205c6.72585,-0.13857 12.96525,5.6936 13.03804,13.24219v57.38833h-11.3v-4.2375c0,-5.42736 -4.46014,-9.8875 -9.8875,-9.8875c-5.42736,0 -9.8875,4.46014 -9.8875,9.8875v4.2375h-36.725c-6.20747,0 -11.3,5.09253 -11.3,11.3c0,5.29002 3.71093,9.73807 8.64605,10.94688c7.29094,24.04004 28.6263,40.96415 53.42119,42.56811l7.63633,39.71001h35.26836l0.44141,-2.2898l7.20044,-37.42022c24.74882,-1.60311 46.04509,-18.46816 53.37153,-42.43569c5.19654,-1.00917 9.1647,-5.60254 9.1647,-11.0793c0,-6.20747 -5.09253,-11.3 -11.3,-11.3h-36.725v-4.2375c0,-5.42736 -4.46014,-9.8875 -9.8875,-9.8875c-5.42736,0 -9.8875,4.46014 -9.8875,9.8875v4.2375h-11.3v-57.42144v-0.00552c-0.08397,-16.83474 -13.92699,-30.35504 -30.08184,-30.14805zM91.46489,19.775c12.9483,-0.16591 24.29153,10.77705 24.36011,24.52564v57.39936h-5.65v-57.42695v-0.01655c-0.10234,-10.61407 -8.79695,-19.03985 -18.79839,-18.83701h-0.00552c-8.95567,0.18182 -16.7201,7.23703 -17.89902,16.60239l-0.02207,0.17656v2.48843l1.51182,0.79453c0.7792,0.4099 1.31318,1.20912 1.31318,2.17945v0.72832c0,1.39041 -1.07043,2.46084 -2.46084,2.46084h-9.20332c-1.39041,0 -2.46084,-1.07043 -2.46084,-2.46084v-0.72832c0,-1.39041 1.07043,-2.46084 2.46084,-2.46084h2.99053l0.19311,-2.61533c0.94474,-12.8048 11.54861,-22.65381 23.67041,-22.80967zM83.3375,93.225c2.37529,0 4.2375,1.86221 4.2375,4.2375v4.2375h-8.475v-4.2375c0,-2.37529 1.86221,-4.2375 4.2375,-4.2375zM142.6625,93.225c2.37529,0 4.2375,1.86221 4.2375,4.2375v4.2375h-8.475v-4.2375c0,-2.37529 1.86221,-4.2375 4.2375,-4.2375zM36.725,107.35h152.55c3.15458,0 5.65,2.49542 5.65,5.65c0,3.15458 -2.49542,5.65 -5.65,5.65h-8.475c-1.0188,-0.01441 -1.96643,0.52086 -2.48003,1.40084c-0.5136,0.87998 -0.5136,1.96834 0,2.84832c0.5136,0.87998 1.46124,1.41525 2.48003,1.40084h4.62373c-7.00753,20.32387 -25.1896,34.58571 -46.38628,36.49326h-52.54942c-21.19383,-1.90752 -39.3715,-16.16922 -46.38076,-36.49326h5.09272c1.0188,0.01441 1.96643,-0.52086 2.48003,-1.40084c0.5136,-0.87998 0.5136,-1.96834 0,-2.84832c-0.5136,-0.87998 -1.46124,-1.41525 -2.48003,-1.40084h-8.475c-3.15458,0 -5.65,-2.49542 -5.65,-5.65c0,-3.15458 2.49542,-5.65 5.65,-5.65zM56.5,118.65l-2.26221,1.13662l-0.44692,2.48843l1.727,1.84839l0.98213,0.17656l2.26221,-1.13662l0.44692,-2.48843l-1.727,-1.84839zM67.8,118.65l-2.26221,1.13662l-0.44692,2.48843l1.727,1.84839l0.98213,0.17656l2.26221,-1.13662l0.44692,-2.48843l-1.727,-1.84839zM79.1,118.65l-2.26221,1.13662l-0.44692,2.48843l1.727,1.84839l0.98213,0.17656l2.26221,-1.13662l0.44692,-2.48843l-1.727,-1.84839zM90.4,118.65l-2.26221,1.13662l-0.44692,2.48843l1.727,1.84839l0.98213,0.17656l2.26221,-1.13662l0.44692,-2.48843l-1.727,-1.84839zM101.7,118.65l-2.26221,1.13662l-0.44692,2.48843l1.727,1.84839l0.98213,0.17656l2.26221,-1.13662l0.44692,-2.48843l-1.727,-1.84839zM113,118.65l-2.26221,1.13662l-0.44692,2.48843l1.727,1.84839l0.98213,0.17656l2.26221,-1.13662l0.44692,-2.48843l-1.727,-1.84839zM124.3,118.65l-2.26221,1.13662l-0.44692,2.48843l1.727,1.84839l0.98213,0.17656l2.26221,-1.13662l0.44692,-2.48843l-1.727,-1.84839zM135.6,118.65l-2.26221,1.13662l-0.44692,2.48843l1.727,1.84839l0.98213,0.17656l2.26221,-1.13662l0.44692,-2.48843l-1.727,-1.84839zM146.9,118.65l-2.26221,1.13662l-0.44692,2.48843l1.727,1.84839l0.98213,0.17656l2.26221,-1.13662l0.44692,-2.48843l-1.727,-1.84839zM158.2,118.65l-2.26221,1.13662l-0.44692,2.48843l1.727,1.84839l0.98213,0.17656l2.26221,-1.13662l0.44692,-2.48843l-1.727,-1.84839zM169.5,118.65l-2.26221,1.13662l-0.44692,2.48843l1.727,1.84839l0.98213,0.17656l2.26221,-1.13662l0.44692,-2.48843l-1.727,-1.84839zM93.27466,166.675h38.98169l-6.52178,33.9h-25.93813z"></path></g></g></svg>