<svg version="1.1" xmlns="http://www.w3.org/2000/svg" xmlns:xlink="http://www.w3.org/1999/xlink" viewBox="0 0 226 226"><g fill="none" fill-rule="nonzero" stroke="none" stroke-width="1" stroke-linecap="butt" stroke-linejoin="miter" stroke-miterlimit="10" stroke-dasharray="" stroke-dashoffset="0" font-family="none" font-weight="none" font-size="none" text-anchor="none" style="mix-blend-mode: normal"><path d="M0,226v-226h226v226z" fill="none"></path><g fill="#e74c3c"><path d="M113,0c-35.21009,0 -63.5625,42.49859 -63.5625,77.6875c0,11.20819 3.0094,20.67194 8.6488,28.25h-2.5036h-9.67645c-5.82656,0 -10.59375,4.76719 -10.59375,10.59375c0,5.82656 4.76719,10.59375 10.59375,10.59375h0.6828l3.69678,16.55963c3.91969,17.69156 15.74607,32.70296 31.91919,40.75421l-6.1452,28.73969c-0.67094,3.14281 0.11146,6.3968 2.12427,8.90399c2.01281,2.47188 5.01465,3.91748 8.22809,3.91748h53.17566c3.21344,0 6.21528,-1.44561 8.22809,-3.91748c2.01281,-2.50719 2.7952,-5.76118 2.12427,-8.90399l-6.1452,-28.73969c16.1025,-7.94531 27.92888,-22.78015 31.91919,-40.75421l3.69678,-16.55963h0.6828c5.82656,0 10.59375,-4.76719 10.59375,-10.59375c0,-5.82656 -4.76719,-10.59375 -10.59375,-10.59375h-9.67645h-2.5036c5.63941,-7.57806 8.6488,-17.04181 8.6488,-28.25c0,-35.18891 -28.35241,-77.6875 -63.5625,-77.6875zM113,7.0625c30.42878,0 56.5,38.83316 56.5,70.625c0,12.91025 -4.38123,21.92553 -10.9317,28.25h-13.53876h-9.07641h-45.87176h-9.1109h-13.53876c-6.55047,-6.32447 -10.9317,-15.33975 -10.9317,-28.25c0,-31.79184 26.07122,-70.625 56.5,-70.625zM113,21.1875c-23.47222,0 -42.375,29.37321 -42.375,53.69293c0,1.55022 0.07576,3.04245 0.2276,4.47613c0.20128,1.93512 1.91272,3.33218 3.8761,3.14502c1.93866,-0.20481 3.3463,-1.94434 3.14502,-3.88299c-0.12359,-1.19356 -0.18622,-2.44219 -0.18622,-3.73816c0,-20.99328 16.29319,-46.63043 35.3125,-46.63043c19.01931,0 35.3125,25.63715 35.3125,46.63043c0,9.24128 -3.25327,16.27879 -9.66955,20.90472c-1.582,1.14059 -1.93711,3.34933 -0.80005,4.93133c0.69212,0.95697 1.77445,1.46216 2.86914,1.46216c0.71331,0 1.43717,-0.22054 2.0622,-0.66901c8.24547,-5.94309 12.60077,-15.15265 12.60077,-26.62921c0,-24.31972 -18.90278,-53.69293 -42.375,-53.69293zM77.83923,87.82605c-0.45355,0.07112 -0.89462,0.2319 -1.31043,0.48969c-1.65616,1.02759 -2.1656,3.20621 -1.138,4.86237c1.60319,2.58134 3.61357,4.90182 5.98657,6.89697c0.66388,0.55441 1.46751,0.82764 2.2691,0.82764c1.00641,0 2.00779,-0.42541 2.71051,-1.25525c1.25359,-1.49372 1.05921,-3.72602 -0.43451,-4.97961c-1.80447,-1.51491 -3.32009,-3.27176 -4.53131,-5.22101c-0.7707,-1.24212 -2.19131,-1.83415 -3.55194,-1.62079zM45.90625,113h12.9939h8.09015h20.19434h11.93866h27.75342h11.93866h20.19434h8.09015h12.9939c1.94219,0 3.53125,1.58906 3.53125,3.53125c0,1.94219 -1.58906,3.53125 -3.53125,3.53125h-3.53125h-13.70428h-8.68329h-25.7464h-30.85706h-25.7464h-8.68329h-13.70428h-3.53125c-1.94219,0 -3.53125,-1.58906 -3.53125,-3.53125c0,-1.94219 1.58906,-3.53125 3.53125,-3.53125zM53.85156,127.125h14.72504h9.77991h69.28699h9.77991h14.72504l-3.31744,15.00781c-0.03531,0.16597 -0.0991,0.32372 -0.13794,0.48969c-0.64622,-0.81572 -1.60137,-1.3725 -2.7243,-1.3725c-1.95278,0 -3.53125,1.582 -3.53125,3.53125v7.0625c0,1.28891 0.7276,2.36842 1.75873,2.98639c-4.87666,9.54497 -12.48209,17.40029 -21.95996,22.43585c-2.11875,1.16531 -4.30509,2.15351 -6.6004,2.9657c-1.48313,0.60032 -3.03963,1.10048 -4.59338,1.52423c-1.87156,0.52969 -2.9988,2.46663 -2.46912,4.3382c0.42375,1.58906 1.83267,2.61395 3.38642,2.61395c0.31781,0 0.64087,-0.032 0.95868,-0.13794c1.44781,-0.38844 2.85755,-0.81522 4.23474,-1.34491l5.86243,27.43616c0.24719,1.05937 -0.03255,2.1251 -0.70349,2.9726c-0.67094,0.81219 -1.66493,1.30353 -2.7243,1.30353h-53.17566c-1.05938,0 -2.05337,-0.49134 -2.7243,-1.30353c-0.67094,-0.8475 -0.95068,-1.91322 -0.70349,-2.9726l6.74524,-31.53296c0.31781,-1.58906 -0.49465,-3.24654 -2.0484,-3.91748c-1.34188,-0.60031 -2.64623,-1.2387 -3.91748,-1.94495c-9.44256,-5.09559 -17.04192,-12.99969 -21.91858,-22.46344c1.00994,-0.6215 1.71735,-1.68402 1.71735,-2.9588v-7.0625c0,-1.94925 -1.57847,-3.53125 -3.53125,-3.53125c-1.12294,0 -2.07808,0.55678 -2.7243,1.3725c-0.03884,-0.16597 -0.0991,-0.32372 -0.13794,-0.48969zM77.6875,141.25c-1.95278,0 -3.53125,1.582 -3.53125,3.53125v7.0625c0,1.94925 1.57847,3.53125 3.53125,3.53125c1.95278,0 3.53125,-1.582 3.53125,-3.53125v-7.0625c0,-1.94925 -1.57847,-3.53125 -3.53125,-3.53125zM95.34375,141.25c-1.95278,0 -3.53125,1.582 -3.53125,3.53125v7.0625c0,1.94925 1.57847,3.53125 3.53125,3.53125c1.95278,0 3.53125,-1.582 3.53125,-3.53125v-7.0625c0,-1.94925 -1.57847,-3.53125 -3.53125,-3.53125zM113,141.25c-1.95278,0 -3.53125,1.582 -3.53125,3.53125v7.0625c0,1.94925 1.57847,3.53125 3.53125,3.53125c1.95278,0 3.53125,-1.582 3.53125,-3.53125v-7.0625c0,-1.94925 -1.57847,-3.53125 -3.53125,-3.53125zM130.65625,141.25c-1.95278,0 -3.53125,1.582 -3.53125,3.53125v7.0625c0,1.94925 1.57847,3.53125 3.53125,3.53125c1.95278,0 3.53125,-1.582 3.53125,-3.53125v-7.0625c0,-1.94925 -1.57847,-3.53125 -3.53125,-3.53125zM148.3125,141.25c-1.95278,0 -3.53125,1.582 -3.53125,3.53125v7.0625c0,1.94925 1.57847,3.53125 3.53125,3.53125c1.95278,0 3.53125,-1.582 3.53125,-3.53125v-7.0625c0,-1.94925 -1.57847,-3.53125 -3.53125,-3.53125zM108.88941,183.625c-1.95278,0 -3.53125,1.582 -3.53125,3.53125c0,1.94925 1.57847,3.53125 3.53125,3.53125h8.22119c1.95278,0 3.53125,-1.582 3.53125,-3.53125c0,-1.94925 -1.57847,-3.53125 -3.53125,-3.53125z"></path></g></g></svg>