<svg version="1.1" xmlns="http://www.w3.org/2000/svg" xmlns:xlink="http://www.w3.org/1999/xlink" viewBox="0 0 226 226"><g fill="none" fill-rule="nonzero" stroke="none" stroke-width="1" stroke-linecap="butt" stroke-linejoin="miter" stroke-miterlimit="10" stroke-dasharray="" stroke-dashoffset="0" font-family="none" font-weight="none" font-size="none" text-anchor="none" style="mix-blend-mode: normal"><path d="M0,226v-226h226v226z" fill="none"></path><g fill="#e74c3c"><path d="M149.18428,22.62207c-16.62998,-0.15449 -33.55791,6.29004 -45.67451,18.40664c-11.24482,11.23379 -14.76504,24.2001 -12.39248,36.81328c0.64004,3.37676 1.69942,6.72041 3.07881,10.00888l-62.49209,62.50313c-12.1166,12.1166 -12.1166,31.82539 0,43.94199c12.1166,12.1166 31.82539,12.1166 43.94199,0l62.50313,-62.49209c3.28848,1.37939 6.63213,2.43877 10.00889,3.07881c12.61318,2.37256 25.57949,-1.14766 36.81328,-12.39248c17.22588,-17.22588 22.98623,-44.1958 14.62158,-66.1999l-1.55596,-4.07197l-37.66299,37.65195l-16.97207,-7.27217l-7.27217,-16.97207l37.65195,-37.66299l-4.07197,-1.55596c-5.50654,-2.09668 -11.31103,-3.29951 -17.20381,-3.67471c-1.10352,-0.06621 -2.21807,-0.09932 -3.32158,-0.11035zM149.14014,28.31621c1.0042,0.01103 2.01943,0.04414 3.0126,0.09932c3.75195,0.2207 7.31631,1.31318 10.8917,2.29531l-33.62412,33.61308l9.67783,22.57793l22.57793,9.67783l1.34629,-1.35732l32.2668,-32.2668c5.18652,18.89219 0.09932,41.13906 -14.3126,55.55098c-10.15234,10.15234 -20.79023,12.88906 -31.78125,10.82549c-10.97998,-2.07461 -22.3793,-9.28057 -32.80752,-19.71982c-10.43926,-10.42822 -17.64522,-21.82754 -19.71982,-32.80752c-2.06357,-10.99102 0.67314,-21.62891 10.82549,-31.78125c10.95791,-10.94687 26.51748,-16.80654 41.64668,-16.70723zM96.80039,93.23603c3.8292,7.10664 9.17022,13.95947 15.58164,20.38193c6.42246,6.41143 13.27529,11.75244 20.38193,15.58164l-61.1127,61.10166c-9.95371,9.95371 -25.99883,9.95371 -35.95254,0c-9.95371,-9.95371 -9.95371,-25.99883 0,-35.95254zM96.05,113c-1.55596,0 -2.825,1.26904 -2.825,2.825c0,1.55596 1.26904,2.825 2.825,2.825c1.55596,0 2.825,-1.26904 2.825,-2.825c0,-1.55596 -1.26904,-2.825 -2.825,-2.825zM87.575,121.475c-1.55596,0 -2.825,1.26904 -2.825,2.825c0,1.55596 1.26904,2.825 2.825,2.825c1.55596,0 2.825,-1.26904 2.825,-2.825c0,-1.55596 -1.26904,-2.825 -2.825,-2.825zM110.175,127.125c-1.55596,0 -2.825,1.26904 -2.825,2.825c0,1.55596 1.26904,2.825 2.825,2.825c1.55596,0 2.825,-1.26904 2.825,-2.825c0,-1.55596 -1.26904,-2.825 -2.825,-2.825zM79.1,129.95c-1.55596,0 -2.825,1.26904 -2.825,2.825c0,1.55596 1.26904,2.825 2.825,2.825c1.55596,0 2.825,-1.26904 2.825,-2.825c0,-1.55596 -1.26904,-2.825 -2.825,-2.825zM101.7,135.6c-1.55596,0 -2.825,1.26904 -2.825,2.825c0,1.55596 1.26904,2.825 2.825,2.825c1.55596,0 2.825,-1.26904 2.825,-2.825c0,-1.55596 -1.26904,-2.825 -2.825,-2.825zM70.625,138.425c-1.55596,0 -2.825,1.26904 -2.825,2.825c0,1.55596 1.26904,2.825 2.825,2.825c1.55596,0 2.825,-1.26904 2.825,-2.825c0,-1.55596 -1.26904,-2.825 -2.825,-2.825zM93.225,144.075c-1.55596,0 -2.825,1.26904 -2.825,2.825c0,1.55596 1.26904,2.825 2.825,2.825c1.55596,0 2.825,-1.26904 2.825,-2.825c0,-1.55596 -1.26904,-2.825 -2.825,-2.825zM62.15,146.9c-1.55596,0 -2.825,1.26904 -2.825,2.825c0,1.55596 1.26904,2.825 2.825,2.825c1.55596,0 2.825,-1.26904 2.825,-2.825c0,-1.55596 -1.26904,-2.825 -2.825,-2.825zM84.75,152.55c-1.55596,0 -2.825,1.26904 -2.825,2.825c0,1.55596 1.26904,2.825 2.825,2.825c1.55596,0 2.825,-1.26904 2.825,-2.825c0,-1.55596 -1.26904,-2.825 -2.825,-2.825zM53.675,158.2c-7.76875,0 -14.125,6.35625 -14.125,14.125c0,7.76875 6.35625,14.125 14.125,14.125c7.76875,0 14.125,-6.35625 14.125,-14.125c0,-7.76875 -6.35625,-14.125 -14.125,-14.125zM76.275,161.025c-1.55596,0 -2.825,1.26904 -2.825,2.825c0,1.55596 1.26904,2.825 2.825,2.825c1.55596,0 2.825,-1.26904 2.825,-2.825c0,-1.55596 -1.26904,-2.825 -2.825,-2.825zM53.675,163.85c4.71201,0 8.475,3.76299 8.475,8.475c0,4.71201 -3.76299,8.475 -8.475,8.475c-4.71201,0 -8.475,-3.76299 -8.475,-8.475c0,-4.71201 3.76299,-8.475 8.475,-8.475z"></path></g></g></svg>